<svg version="1" xmlns="http://www.w3.org/2000/svg" width="933.333" height="933.333" viewBox="0 0 700.000000 700.000000"><path d="M210.2 117.1c-47.2 6.2-84.2 44.8-89.2 93-1.3 12.9-1.3 257.5 0 270.9 4.4 44.1 34.1 78.9 77.8 91.3 7.6 2.1 9 2.2 89.7 2.5l82.1.3 2.4-2.6c3.4-3.7 3.3-9-.4-12.1l-2.7-2.4h-76.8c-49.2 0-78.9-.4-82.7-1.1-36.1-6.3-63.7-33.1-70.9-68.5-1.4-7-1.5-23.2-1.3-146.4l.3-138.5 2.2-7c10.2-32.1 34-54.1 66-61.3 7.2-1.6 18.3-1.7 143.3-1.7 125 0 136.1.1 143.3 1.7 31.7 7.1 54.8 28.3 65.4 59.8l2.8 8.5.5 89.7.5 89.6 2.4 2.6c3.4 3.6 8.8 3.6 12.2 0l2.4-2.6.3-79.6c.3-85.7-.1-97.2-4.3-111.8-10.2-35.4-37.8-62.2-74.3-72.2l-9.7-2.7-137.5-.1c-75.6-.1-140.3.2-143.8.7z"/><path d="M281.9 180.7c-2.5 2.7-14.9 17.1-27.8 32-12.8 15-23.5 27.3-23.8 27.3-.3 0-8.1-5.6-17.3-12.5-16.8-12.6-19.4-13.8-24.5-11.9-2.5 1-4.7 6.2-4 9.5.6 2.5 4.5 5.9 22.6 19.5 14.1 10.5 22.8 16.4 24.4 16.4 1.3 0 3.7-1.1 5.3-2.4 4.4-3.8 59.5-68.3 60.9-71.4 2.4-5.3-1.7-11.2-7.7-11.2-3.2 0-4.4.7-8.1 4.7zM346.3 219c-2.9 1.2-5.6 6.5-4.7 9.3.3 1.2 1.6 3.2 2.7 4.4l2 2.3h160.4l2-2.3c2.9-3.1 3.4-5.2 2.1-8.7-2.1-6.2 1-6-84.5-5.9-42.8 0-78.8.4-80 .9zM278.3 303.8c-4.3 4.8-16.7 19.2-27.7 32-10.9 12.7-20.1 23.2-20.4 23.2-.3 0-8-5.6-17.2-12.5-16.8-12.6-19.4-13.8-24.5-11.9-2.5 1-4.7 6.2-4 9.5.6 2.5 4.5 5.9 22.6 19.5 13.7 10.2 22.8 16.4 24.3 16.4 1.3 0 3.5-.9 4.9-2 4.1-3.3 60.6-69.5 61.7-72.4 1.9-5.1-2.3-10.6-8.1-10.6-3.5 0-4.4.7-11.6 8.8zM346.3 338c-2.9 1.2-5.6 6.5-4.7 9.3.3 1.2 1.6 3.2 2.7 4.4l2 2.3h160.4l2-2.3c1.1-1.2 2.3-3 2.6-4 1-2.8-1.9-8.6-4.8-9.7-3.3-1.3-157.1-1.2-160.2 0zM456 381.9c-39.4 8.7-69.8 39.4-78.7 79.5-2.2 9.9-2.1 30.8.1 41.1 4.2 19.2 13.3 36.1 27.1 50.1 14.2 14.4 28.9 23 48.3 28.1 8.4 2.3 11.7 2.6 24.7 2.6 13.1 0 16.3-.3 25-2.6 49.1-13.1 81.5-59.3 76.4-109-3.7-36-25.4-66.7-58-82.1-14.7-7-22.8-8.8-40.9-9.2-12.5-.3-17.2 0-24 1.5zm35 16.2c9.3 1.5 20.4 5.4 29 10.2 10.2 5.7 24.2 19.6 30.4 30.2 13.2 22.7 15.3 51.5 5.4 75.3-12 28.9-39.4 49.3-69.8 52.1-36.3 3.3-69.5-15.4-84.9-47.9-5.6-11.8-7.3-18.6-7.8-32.6-.6-14.2 1.1-24.7 5.9-36.3 8.6-20.5 26.5-38.2 46.7-46 14.7-5.7 30.3-7.4 45.1-5z"/><path d="M472.1 424.6l-3.1 2.6v57.9l2.5 2.4 2.4 2.5h58.2l2.4-2.5c3.5-3.4 3.3-7.8-.4-11.6l-2.9-2.9H486v-45.2l-2.9-2.9c-3.6-3.6-7-3.7-11-.3zM286.3 422.7c-.7.2-13.3 14.5-27.9 31.6-14.7 17.2-27 31.5-27.4 32-.3.4-8.4-5.1-18-12.3-19.3-14.5-21-15.1-26.1-10.1-3.3 3.3-3.7 6.5-1.3 9.9.9 1.3 10.9 9.3 22.2 17.8 22.4 16.8 24.5 17.7 29.6 13.1 4.5-4.1 59.8-69.2 60.7-71.5 2.4-6.2-5.4-13.2-11.8-10.5z"/></svg>